<svg xmlns="http://www.w3.org/2000/svg" viewBox="0 0 1431 1983.03"><defs><style>.cls-1{fill:#ffd639;}.cls-2{fill:#bde0fe;}.cls-3{fill:#ffa3af;}.cls-4{fill:#603813;}.cls-5{fill:#ccc;}.cls-6{fill:#e6e6e6;}.cls-7{fill:#ffff78;}.cls-8{fill:#fff;}</style></defs><g id="Layer_2" data-name="Layer 2"><path class="cls-1" d="M1702,618c-39.74-343.4-335.59-604.38-681-601C676,20.37,385.59,286.39,352,630V2000H1702" transform="translate(-308 -16.97)"/><path class="cls-2" d="M1608,688.75c-34.41-325.82-290.59-573.43-589.7-570.23-298.71,3.2-550.22,255.6-579.3,581.62V2000H1608" transform="translate(-308 -16.97)"/><path class="cls-3" d="M1497,802c-27.67-297.68-233.67-523.91-474.18-521C782.63,284,580.39,514.55,557,812.41V2000h940" transform="translate(-308 -16.97)"/><path class="cls-4" d="M747,618,985,386" transform="translate(-308 -16.97)"/><path class="cls-1" d="M1390,1615.56c-21.37,136.81-180.47,240.77-366.23,239.43-185.51-1.35-341.71-107.32-359.77-244.21V1065h726" transform="translate(-308 -16.97)"/><path class="cls-5" d="M1338,1599.37c-18.28,122.35-154.37,215.33-313.26,214.13-158.68-1.2-292.29-96-307.74-218.4V1107h621" transform="translate(-308 -16.97)"/><rect class="cls-2" x="320" y="1048.03" width="799" height="124"/></g><g id="Layer_5" data-name="Layer 5"><path class="cls-3" d="M563.32,769c-48.11-280.47,185.8-524.7,451.05-530.88,266-6.2,513.58,228.22,479.47,511.3" transform="translate(-308 -16.97)"/></g><g id="Layer_6" data-name="Layer 6"><path class="cls-4" d="M605,679" transform="translate(-308 -16.97)"/><polyline class="cls-3" points="249 843.03 249 662.03 1189 662.03 1189 843.03"/></g><g id="Layer_9" data-name="Layer 9"><rect class="cls-1" x="222" y="716.03" width="969" height="210"/><rect class="cls-5" x="297" y="692.03" width="116" height="251"/><rect class="cls-5" x="1019" y="694.03" width="116" height="251"/><rect class="cls-5" x="689" y="692.03" width="60" height="251"/><rect class="cls-6" x="1037" y="711.03" width="9" height="67"/><rect class="cls-6" x="707" y="711.03" width="6" height="60"/><rect class="cls-6" x="311" y="708.03" width="10" height="72"/><rect class="cls-7" x="435" y="738.03" width="104" height="19"/><rect class="cls-7" x="435" y="773.03" width="104" height="19"/><rect class="cls-7" x="435" y="808.03" width="104" height="19"/><rect class="cls-7" x="435" y="843.03" width="104" height="19"/><rect class="cls-7" x="435" y="878.03" width="104" height="19"/><rect class="cls-7" x="563" y="738.03" width="104" height="19"/><rect class="cls-7" x="563" y="773.03" width="104" height="19"/><rect class="cls-7" x="563" y="808.03" width="104" height="19"/><rect class="cls-7" x="563" y="843.03" width="104" height="19"/><rect class="cls-7" x="563" y="878.03" width="104" height="19"/><rect class="cls-7" x="768" y="737.03" width="104" height="19"/><rect class="cls-7" x="768" y="772.03" width="104" height="19"/><rect class="cls-7" x="768" y="807.03" width="104" height="19"/><rect class="cls-7" x="768" y="842.03" width="104" height="19"/><rect class="cls-7" x="768" y="877.03" width="104" height="19"/><rect class="cls-7" x="896" y="737.03" width="104" height="19"/><rect class="cls-7" x="896" y="772.03" width="104" height="19"/><rect class="cls-7" x="896" y="807.03" width="104" height="19"/><rect class="cls-7" x="896" y="842.03" width="104" height="19"/><rect class="cls-7" x="896" y="877.03" width="104" height="19"/><rect class="cls-5" x="22" y="1597.03" width="200" height="386"/><rect class="cls-5" x="1231" y="1597.03" width="200" height="386"/><rect class="cls-5" x="222" y="1936.03" width="1009" height="47"/><rect class="cls-6" x="39" y="1615.03" width="13" height="175"/><rect class="cls-6" x="1257" y="1615.03" width="13" height="175"/></g><g id="Layer_7" data-name="Layer 7"><path class="cls-8" d="M669,682.38c.66-193.88,158.38-352.53,348.94-357.27,197.17-4.9,366.26,156.56,367.06,357.27" transform="translate(-308 -16.97)"/><rect class="cls-1" x="351" y="637.03" width="736" height="28"/></g><g id="Layer_3" data-name="Layer 3"><rect class="cls-7" y="659.03" width="262" height="37"/><rect class="cls-7" y="731.03" width="262" height="37"/><rect class="cls-7" y="803.03" width="262" height="37"/><path class="cls-5" d="M232,413" transform="translate(-308 -16.97)"/><rect class="cls-8" x="22" y="666.03" width="159" height="18"/><rect class="cls-8" x="22" y="736.03" width="159" height="18"/><rect class="cls-8" x="22" y="808.03" width="159" height="18"/><rect class="cls-7" x="1169" y="662.03" width="262" height="37"/><rect class="cls-7" x="1169" y="734.03" width="262" height="37"/><rect class="cls-7" x="1169" y="806.03" width="262" height="37"/><rect class="cls-8" x="1191" y="669.03" width="159" height="18"/><rect class="cls-8" x="1191" y="739.03" width="159" height="18"/><rect class="cls-8" x="1191" y="811.03" width="159" height="18"/></g></svg>